<?xml version="1.0" standalone="no"?>
<!DOCTYPE svg PUBLIC "-//W3C//DTD SVG 20010904//EN"
 "http://www.w3.org/TR/2001/REC-SVG-20010904/DTD/svg10.dtd">
<svg version="1.0" xmlns="http://www.w3.org/2000/svg"
 width="200.000000pt" height="200.000000pt" viewBox="0 0 200.000000 200.000000"
 preserveAspectRatio="xMidYMid meet">
<metadata>
Created by potrace 1.11, written by Peter Selinger 2001-2013
</metadata>
<g transform="translate(0.000000,200.000000) scale(0.100000,-0.100000)"
fill="#000000" stroke="none">
<path d="M0 1877 l0 -127 80 -40 c44 -22 80 -43 80 -47 0 -4 -35 -43 -78 -86
l-77 -79 125 62 124 62 126 -62 125 -62 -83 84 -82 84 80 39 80 39 0 125 0
126 -122 -123 -123 -122 -127 127 -128 128 0 -128z"/>
<path d="M1709 1919 l-41 -82 -79 79 c-43 43 -79 75 -79 71 0 -4 26 -59 57
-122 l58 -115 -58 -115 c-31 -63 -57 -118 -57 -122 0 -4 36 28 79 71 l79 79
41 -82 41 -81 127 0 128 0 -125 125 -125 125 125 125 125 125 -128 0 -127 0
-41 -81z"/>
<path d="M750 1870 l-235 -119 120 0 120 -1 -125 -126 -125 -126 -245 -123
-245 -124 120 0 120 -1 -125 -125 -125 -125 122 -243 122 -242 0 120 1 120
126 -125 126 -125 123 -245 124 -245 0 120 1 120 127 -127 126 -126 241 121
241 122 -113 5 -112 5 127 127 128 126 235 119 235 118 -115 3 -114 3 123 123
123 123 -124 244 -123 244 -5 -118 -5 -117 -122 122 -121 123 -124 245 -123
245 -5 -118 -5 -117 -120 120 c-66 66 -124 120 -130 119 -5 0 -116 -54 -245
-119z"/>
<path d="M123 372 l127 -127 -122 -123 -123 -122 126 0 125 0 39 80 39 80 83
-82 c46 -45 83 -79 83 -75 0 4 -27 61 -60 127 l-60 120 61 123 61 122 -79 -77
c-43 -43 -81 -78 -84 -78 -3 0 -23 36 -44 80 l-39 80 -130 0 -131 0 128 -128z"/>
<path d="M1584 411 l79 -79 -82 -41 -81 -41 0 -127 0 -128 125 125 125 125
125 -125 125 -125 0 128 0 127 -81 41 -82 41 79 79 c43 43 75 79 71 79 -4 0
-59 -26 -122 -57 l-115 -58 -115 58 c-63 31 -118 57 -122 57 -4 0 28 -36 71
-79z"/>
</g>
</svg>
